<svg height="960" width="960">
	<g transform="translate(50,5)">
		<text class="countLabel mono axis axis-workweek" style="text-anchor: end; font-size: 9pt; font-family: Consolas, courier; fill: #d2d2d2;" transform="translate(-6,11)" x="0" y="16.5">23</text>
		<text class="countLabel mono axis axis-workweek" style="text-anchor: end; font-size: 9pt; font-family: Consolas, courier; fill: #d2d2d2;" transform="translate(-6,11)" x="0" y="49.5">21</text>
		<text class="countLabel mono axis axis-workweek" style="text-anchor: end; font-size: 9pt; font-family: Consolas, courier; fill: #d2d2d2;" transform="translate(-6,11)" x="0" y="82.5">19</text>
		<text class="countLabel mono axis axis-workweek" style="text-anchor: end; font-size: 9pt; font-family: Consolas, courier; fill: #d2d2d2;" transform="translate(-6,11)" x="0" y="115.5">17</text>
		<text class="countLabel mono axis axis-workweek" style="text-anchor: end; font-size: 9pt; font-family: Consolas, courier; fill: #d2d2d2;" transform="translate(-6,11)" x="0" y="148.5">15</text>
		<text class="countLabel mono axis" style="text-anchor: end; font-size: 9pt; font-family: Consolas, courier; fill: #d2d2d2;" transform="translate(-6,11)" x="0" y="181.5">13</text>
		<text class="countLabel mono axis" style="text-anchor: end; font-size: 9pt; font-family: Consolas, courier; fill: #d2d2d2;" transform="translate(-6,11)" x="0" y="214.5">11</text>
		<text class="countLabel mono axis" style="text-anchor: end; font-size: 9pt; font-family: Consolas, courier; fill: #d2d2d2;" transform="translate(-6,11)" x="0" y="247.5">9</text>
		<text class="countLabel mono axis" style="text-anchor: end; font-size: 9pt; font-family: Consolas, courier; fill: #d2d2d2;" transform="translate(-6,11)" x="0" y="280.5">7</text>
		<text class="countLabel mono axis" style="text-anchor: end; font-size: 9pt; font-family: Consolas, courier; fill: #d2d2d2;" transform="translate(-6,11)" x="0" y="313.5">5</text>
		<text class="countLabel mono axis" style="text-anchor: end; font-size: 9pt; font-family: Consolas, courier; fill: #d2d2d2;" transform="translate(-6,11)" x="0" y="346.5">3</text>
		<text class="countLabel mono axis" style="text-anchor: end; font-size: 9pt; font-family: Consolas, courier; fill: #d2d2d2;" transform="translate(-6,11)" x="0" y="379.5">1</text>
		<text class="techLabel mono axis" style="text-anchor: end; font-size: 18pt; font-family: Consolas, courier; fill: #d2d2d2;" transform="translate(16.5, 400.5) rotate(-90)">Java</text>
		<text class="techLabel mono axis" style="text-anchor: end; font-size: 18pt; font-family: Consolas, courier; fill: #d2d2d2;" transform="translate(49.5, 400.5) rotate(-90)">C/C++</text>
		<text class="techLabel mono axis" style="text-anchor: end; font-size: 18pt; font-family: Consolas, courier; fill: #d2d2d2;" transform="translate(82.5, 400.5) rotate(-90)">Matlab</text>
		<text class="techLabel mono axis" style="text-anchor: end; font-size: 18pt; font-family: Consolas, courier; fill: #d2d2d2;" transform="translate(115.5, 400.5) rotate(-90)">Git</text>
		<text class="techLabel mono axis" style="text-anchor: end; font-size: 18pt; font-family: Consolas, courier; fill: #d2d2d2;" transform="translate(148.5, 400.5) rotate(-90)">Python</text>
		<text class="techLabel mono axis" style="text-anchor: end; font-size: 18pt; font-family: Consolas, courier; fill: #d2d2d2;" transform="translate(181.5, 400.5) rotate(-90)">Javascript</text>
		<text class="techLabel mono axis" style="text-anchor: end; font-size: 18pt; font-family: Consolas, courier; fill: #d2d2d2;" transform="translate(214.5, 400.5) rotate(-90)">C#</text>
		<g>
			<rect height="16.5" rx="4" ry="4" style="stroke: #e6e6e6; stroke-width: 2px; fill: #00deff;" width="33" x="0" y="379.5"/>
			<rect height="16.5" rx="4" ry="4" style="stroke: #e6e6e6; stroke-width: 2px; fill: #00deff;" width="33" x="0" y="363"/>
			<rect height="16.5" rx="4" ry="4" style="stroke: #e6e6e6; stroke-width: 2px; fill: #00deff;" width="33" x="0" y="346.5"/>
			<rect height="16.5" rx="4" ry="4" style="stroke: #e6e6e6; stroke-width: 2px; fill: #00deff;" width="33" x="0" y="330"/>
			<rect height="16.5" rx="4" ry="4" style="stroke: #e6e6e6; stroke-width: 2px; fill: #00deff;" width="33" x="0" y="313.5"/>
			<rect height="16.5" rx="4" ry="4" style="stroke: #e6e6e6; stroke-width: 2px; fill: #00deff;" width="33" x="0" y="297"/>
			<rect height="16.5" rx="4" ry="4" style="stroke: #e6e6e6; stroke-width: 2px; fill: #00deff;" width="33" x="0" y="280.5"/>
			<rect height="16.5" rx="4" ry="4" style="stroke: #e6e6e6; stroke-width: 2px; fill: #00deff;" width="33" x="0" y="264"/>
			<rect height="16.5" rx="4" ry="4" style="stroke: #e6e6e6; stroke-width: 2px; fill: #00deff;" width="33" x="0" y="247.5"/>
			<rect height="16.5" rx="4" ry="4" style="stroke: #e6e6e6; stroke-width: 2px; fill: #00deff;" width="33" x="0" y="231"/>
			<rect height="16.5" rx="4" ry="4" style="stroke: #e6e6e6; stroke-width: 2px; fill: #00deff;" width="33" x="0" y="214.5"/>
			<rect height="16.5" rx="4" ry="4" style="stroke: #e6e6e6; stroke-width: 2px; fill: #00deff;" width="33" x="0" y="198"/>
			<rect height="16.5" rx="4" ry="4" style="stroke: #e6e6e6; stroke-width: 2px; fill: #00deff;" width="33" x="0" y="181.5"/>
			<rect height="16.5" rx="4" ry="4" style="stroke: #e6e6e6; stroke-width: 2px; fill: #00deff;" width="33" x="0" y="165"/>
			<rect height="16.5" rx="4" ry="4" style="stroke: #e6e6e6; stroke-width: 2px; fill: #00deff;" width="33" x="0" y="148.5"/>
			<rect height="16.5" rx="4" ry="4" style="stroke: #e6e6e6; stroke-width: 2px; fill: #00deff;" width="33" x="0" y="132"/>
			<rect height="16.5" rx="4" ry="4" style="stroke: #e6e6e6; stroke-width: 2px; fill: #00deff;" width="33" x="0" y="115.5"/>
			<rect height="16.5" rx="4" ry="4" style="stroke: #e6e6e6; stroke-width: 2px; fill: #00deff;" width="33" x="0" y="99"/>
			<rect height="16.5" rx="4" ry="4" style="stroke: #e6e6e6; stroke-width: 2px; fill: #00deff;" width="33" x="0" y="82.5"/>
			<rect height="16.5" rx="4" ry="4" style="stroke: #e6e6e6; stroke-width: 2px; fill: #00deff;" width="33" x="0" y="66"/>
			<rect height="16.5" rx="4" ry="4" style="stroke: #e6e6e6; stroke-width: 2px; fill: #00deff;" width="33" x="0" y="49.5"/>
			<rect height="16.5" rx="4" ry="4" style="stroke: #e6e6e6; stroke-width: 2px; fill: #00deff;" width="33" x="0" y="33"/>
			<rect height="16.5" rx="4" ry="4" style="stroke: #e6e6e6; stroke-width: 2px; fill: #00deff;" width="33" x="0" y="16.5"/>
			<rect height="16.5" rx="4" ry="4" style="stroke: #e6e6e6; stroke-width: 2px; fill: #333333;" width="33" x="0" y="0"/>
		</g>
		<g>
			<rect height="16.5" rx="4" ry="4" style="stroke: #e6e6e6; stroke-width: 2px; fill: #a8e8ff;" width="33" x="33" y="379.5"/>
			<rect height="16.5" rx="4" ry="4" style="stroke: #e6e6e6; stroke-width: 2px; fill: #a8e8ff;" width="33" x="33" y="363"/>
			<rect height="16.5" rx="4" ry="4" style="stroke: #e6e6e6; stroke-width: 2px; fill: #a8e8ff;" width="33" x="33" y="346.5"/>
			<rect height="16.5" rx="4" ry="4" style="stroke: #e6e6e6; stroke-width: 2px; fill: #a8e8ff;" width="33" x="33" y="330"/>
			<rect height="16.5" rx="4" ry="4" style="stroke: #e6e6e6; stroke-width: 2px; fill: #a8e8ff;" width="33" x="33" y="313.5"/>
			<rect height="16.5" rx="4" ry="4" style="stroke: #e6e6e6; stroke-width: 2px; fill: #a8e8ff;" width="33" x="33" y="297"/>
			<rect height="16.5" rx="4" ry="4" style="stroke: #e6e6e6; stroke-width: 2px; fill: #a8e8ff;" width="33" x="33" y="280.5"/>
			<rect height="16.5" rx="4" ry="4" style="stroke: #e6e6e6; stroke-width: 2px; fill: #a8e8ff;" width="33" x="33" y="264"/>
			<rect height="16.5" rx="4" ry="4" style="stroke: #e6e6e6; stroke-width: 2px; fill: #a8e8ff;" width="33" x="33" y="247.5"/>
			<rect height="16.5" rx="4" ry="4" style="stroke: #e6e6e6; stroke-width: 2px; fill: #a8e8ff;" width="33" x="33" y="231"/>
			<rect height="16.5" rx="4" ry="4" style="stroke: #e6e6e6; stroke-width: 2px; fill: #a8e8ff;" width="33" x="33" y="214.5"/>
			<rect height="16.5" rx="4" ry="4" style="stroke: #e6e6e6; stroke-width: 2px; fill: #a8e8ff;" width="33" x="33" y="198"/>
			<rect height="16.5" rx="4" ry="4" style="stroke: #e6e6e6; stroke-width: 2px; fill: #333333;" width="33" x="33" y="181.5"/>
			<rect height="16.5" rx="4" ry="4" style="stroke: #e6e6e6; stroke-width: 2px; fill: #333333;" width="33" x="33" y="165"/>
			<rect height="16.5" rx="4" ry="4" style="stroke: #e6e6e6; stroke-width: 2px; fill: #333333;" width="33" x="33" y="148.5"/>
			<rect height="16.5" rx="4" ry="4" style="stroke: #e6e6e6; stroke-width: 2px; fill: #333333;" width="33" x="33" y="132"/>
			<rect height="16.5" rx="4" ry="4" style="stroke: #e6e6e6; stroke-width: 2px; fill: #333333;" width="33" x="33" y="115.5"/>
			<rect height="16.5" rx="4" ry="4" style="stroke: #e6e6e6; stroke-width: 2px; fill: #333333;" width="33" x="33" y="99"/>
			<rect height="16.5" rx="4" ry="4" style="stroke: #e6e6e6; stroke-width: 2px; fill: #333333;" width="33" x="33" y="82.5"/>
			<rect height="16.5" rx="4" ry="4" style="stroke: #e6e6e6; stroke-width: 2px; fill: #333333;" width="33" x="33" y="66"/>
			<rect height="16.5" rx="4" ry="4" style="stroke: #e6e6e6; stroke-width: 2px; fill: #333333;" width="33" x="33" y="49.5"/>
			<rect height="16.5" rx="4" ry="4" style="stroke: #e6e6e6; stroke-width: 2px; fill: #333333;" width="33" x="33" y="33"/>
			<rect height="16.5" rx="4" ry="4" style="stroke: #e6e6e6; stroke-width: 2px; fill: #333333;" width="33" x="33" y="16.5"/>
			<rect height="16.5" rx="4" ry="4" style="stroke: #e6e6e6; stroke-width: 2px; fill: #333333;" width="33" x="33" y="0"/>
		</g>
		<g>
			<rect height="16.5" rx="4" ry="4" style="stroke: #e6e6e6; stroke-width: 2px; fill: #a8e8ff;" width="33" x="66" y="379.5"/>
			<rect height="16.5" rx="4" ry="4" style="stroke: #e6e6e6; stroke-width: 2px; fill: #a8e8ff;" width="33" x="66" y="363"/>
			<rect height="16.5" rx="4" ry="4" style="stroke: #e6e6e6; stroke-width: 2px; fill: #a8e8ff;" width="33" x="66" y="346.5"/>
			<rect height="16.5" rx="4" ry="4" style="stroke: #e6e6e6; stroke-width: 2px; fill: #a8e8ff;" width="33" x="66" y="330"/>
			<rect height="16.5" rx="4" ry="4" style="stroke: #e6e6e6; stroke-width: 2px; fill: #a8e8ff;" width="33" x="66" y="313.5"/>
			<rect height="16.5" rx="4" ry="4" style="stroke: #e6e6e6; stroke-width: 2px; fill: #a8e8ff;" width="33" x="66" y="297"/>
			<rect height="16.5" rx="4" ry="4" style="stroke: #e6e6e6; stroke-width: 2px; fill: #a8e8ff;" width="33" x="66" y="280.5"/>
			<rect height="16.5" rx="4" ry="4" style="stroke: #e6e6e6; stroke-width: 2px; fill: #a8e8ff;" width="33" x="66" y="264"/>
			<rect height="16.5" rx="4" ry="4" style="stroke: #e6e6e6; stroke-width: 2px; fill: #333333;" width="33" x="66" y="247.5"/>
			<rect height="16.5" rx="4" ry="4" style="stroke: #e6e6e6; stroke-width: 2px; fill: #333333;" width="33" x="66" y="231"/>
			<rect height="16.5" rx="4" ry="4" style="stroke: #e6e6e6; stroke-width: 2px; fill: #333333;" width="33" x="66" y="214.5"/>
			<rect height="16.5" rx="4" ry="4" style="stroke: #e6e6e6; stroke-width: 2px; fill: #333333;" width="33" x="66" y="198"/>
			<rect height="16.5" rx="4" ry="4" style="stroke: #e6e6e6; stroke-width: 2px; fill: #333333;" width="33" x="66" y="181.5"/>
			<rect height="16.5" rx="4" ry="4" style="stroke: #e6e6e6; stroke-width: 2px; fill: #333333;" width="33" x="66" y="165"/>
			<rect height="16.5" rx="4" ry="4" style="stroke: #e6e6e6; stroke-width: 2px; fill: #333333;" width="33" x="66" y="148.5"/>
			<rect height="16.5" rx="4" ry="4" style="stroke: #e6e6e6; stroke-width: 2px; fill: #333333;" width="33" x="66" y="132"/>
			<rect height="16.5" rx="4" ry="4" style="stroke: #e6e6e6; stroke-width: 2px; fill: #333333;" width="33" x="66" y="115.5"/>
			<rect height="16.5" rx="4" ry="4" style="stroke: #e6e6e6; stroke-width: 2px; fill: #333333;" width="33" x="66" y="99"/>
			<rect height="16.5" rx="4" ry="4" style="stroke: #e6e6e6; stroke-width: 2px; fill: #333333;" width="33" x="66" y="82.5"/>
			<rect height="16.5" rx="4" ry="4" style="stroke: #e6e6e6; stroke-width: 2px; fill: #333333;" width="33" x="66" y="66"/>
			<rect height="16.5" rx="4" ry="4" style="stroke: #e6e6e6; stroke-width: 2px; fill: #333333;" width="33" x="66" y="49.5"/>
			<rect height="16.5" rx="4" ry="4" style="stroke: #e6e6e6; stroke-width: 2px; fill: #333333;" width="33" x="66" y="33"/>
			<rect height="16.5" rx="4" ry="4" style="stroke: #e6e6e6; stroke-width: 2px; fill: #333333;" width="33" x="66" y="16.5"/>
			<rect height="16.5" rx="4" ry="4" style="stroke: #e6e6e6; stroke-width: 2px; fill: #333333;" width="33" x="66" y="0"/>
		</g>
		<g>
			<rect height="16.5" rx="4" ry="4" style="stroke: #e6e6e6; stroke-width: 2px; fill: #a8e8ff;" width="33" x="99" y="379.5"/>
			<rect height="16.5" rx="4" ry="4" style="stroke: #e6e6e6; stroke-width: 2px; fill: #a8e8ff;" width="33" x="99" y="363"/>
			<rect height="16.5" rx="4" ry="4" style="stroke: #e6e6e6; stroke-width: 2px; fill: #a8e8ff;" width="33" x="99" y="346.5"/>
			<rect height="16.5" rx="4" ry="4" style="stroke: #e6e6e6; stroke-width: 2px; fill: #a8e8ff;" width="33" x="99" y="330"/>
			<rect height="16.5" rx="4" ry="4" style="stroke: #e6e6e6; stroke-width: 2px; fill: #a8e8ff;" width="33" x="99" y="313.5"/>
			<rect height="16.5" rx="4" ry="4" style="stroke: #e6e6e6; stroke-width: 2px; fill: #a8e8ff;" width="33" x="99" y="297"/>
			<rect height="16.5" rx="4" ry="4" style="stroke: #e6e6e6; stroke-width: 2px; fill: #333333;" width="33" x="99" y="280.5"/>
			<rect height="16.5" rx="4" ry="4" style="stroke: #e6e6e6; stroke-width: 2px; fill: #333333;" width="33" x="99" y="264"/>
			<rect height="16.5" rx="4" ry="4" style="stroke: #e6e6e6; stroke-width: 2px; fill: #333333;" width="33" x="99" y="247.5"/>
			<rect height="16.5" rx="4" ry="4" style="stroke: #e6e6e6; stroke-width: 2px; fill: #333333;" width="33" x="99" y="231"/>
			<rect height="16.5" rx="4" ry="4" style="stroke: #e6e6e6; stroke-width: 2px; fill: #333333;" width="33" x="99" y="214.5"/>
			<rect height="16.5" rx="4" ry="4" style="stroke: #e6e6e6; stroke-width: 2px; fill: #333333;" width="33" x="99" y="198"/>
			<rect height="16.5" rx="4" ry="4" style="stroke: #e6e6e6; stroke-width: 2px; fill: #333333;" width="33" x="99" y="181.5"/>
			<rect height="16.5" rx="4" ry="4" style="stroke: #e6e6e6; stroke-width: 2px; fill: #333333;" width="33" x="99" y="165"/>
			<rect height="16.5" rx="4" ry="4" style="stroke: #e6e6e6; stroke-width: 2px; fill: #333333;" width="33" x="99" y="148.5"/>
			<rect height="16.5" rx="4" ry="4" style="stroke: #e6e6e6; stroke-width: 2px; fill: #333333;" width="33" x="99" y="132"/>
			<rect height="16.5" rx="4" ry="4" style="stroke: #e6e6e6; stroke-width: 2px; fill: #333333;" width="33" x="99" y="115.5"/>
			<rect height="16.5" rx="4" ry="4" style="stroke: #e6e6e6; stroke-width: 2px; fill: #333333;" width="33" x="99" y="99"/>
			<rect height="16.5" rx="4" ry="4" style="stroke: #e6e6e6; stroke-width: 2px; fill: #333333;" width="33" x="99" y="82.5"/>
			<rect height="16.5" rx="4" ry="4" style="stroke: #e6e6e6; stroke-width: 2px; fill: #333333;" width="33" x="99" y="66"/>
			<rect height="16.5" rx="4" ry="4" style="stroke: #e6e6e6; stroke-width: 2px; fill: #333333;" width="33" x="99" y="49.5"/>
			<rect height="16.5" rx="4" ry="4" style="stroke: #e6e6e6; stroke-width: 2px; fill: #333333;" width="33" x="99" y="33"/>
			<rect height="16.5" rx="4" ry="4" style="stroke: #e6e6e6; stroke-width: 2px; fill: #333333;" width="33" x="99" y="16.5"/>
			<rect height="16.5" rx="4" ry="4" style="stroke: #e6e6e6; stroke-width: 2px; fill: #333333;" width="33" x="99" y="0"/>
		</g>
		<g>
			<rect height="16.5" rx="4" ry="4" style="stroke: #e6e6e6; stroke-width: 2px; fill: #a8e8ff;" width="33" x="132" y="379.5"/>
			<rect height="16.5" rx="4" ry="4" style="stroke: #e6e6e6; stroke-width: 2px; fill: #a8e8ff;" width="33" x="132" y="363"/>
			<rect height="16.5" rx="4" ry="4" style="stroke: #e6e6e6; stroke-width: 2px; fill: #a8e8ff;" width="33" x="132" y="346.5"/>
			<rect height="16.5" rx="4" ry="4" style="stroke: #e6e6e6; stroke-width: 2px; fill: #a8e8ff;" width="33" x="132" y="330"/>
			<rect height="16.5" rx="4" ry="4" style="stroke: #e6e6e6; stroke-width: 2px; fill: #a8e8ff;" width="33" x="132" y="313.5"/>
			<rect height="16.5" rx="4" ry="4" style="stroke: #e6e6e6; stroke-width: 2px; fill: #a8e8ff;" width="33" x="132" y="297"/>
			<rect height="16.5" rx="4" ry="4" style="stroke: #e6e6e6; stroke-width: 2px; fill: #333333;" width="33" x="132" y="280.5"/>
			<rect height="16.5" rx="4" ry="4" style="stroke: #e6e6e6; stroke-width: 2px; fill: #333333;" width="33" x="132" y="264"/>
			<rect height="16.5" rx="4" ry="4" style="stroke: #e6e6e6; stroke-width: 2px; fill: #333333;" width="33" x="132" y="247.5"/>
			<rect height="16.5" rx="4" ry="4" style="stroke: #e6e6e6; stroke-width: 2px; fill: #333333;" width="33" x="132" y="231"/>
			<rect height="16.5" rx="4" ry="4" style="stroke: #e6e6e6; stroke-width: 2px; fill: #333333;" width="33" x="132" y="214.5"/>
			<rect height="16.5" rx="4" ry="4" style="stroke: #e6e6e6; stroke-width: 2px; fill: #333333;" width="33" x="132" y="198"/>
			<rect height="16.5" rx="4" ry="4" style="stroke: #e6e6e6; stroke-width: 2px; fill: #333333;" width="33" x="132" y="181.5"/>
			<rect height="16.5" rx="4" ry="4" style="stroke: #e6e6e6; stroke-width: 2px; fill: #333333;" width="33" x="132" y="165"/>
			<rect height="16.5" rx="4" ry="4" style="stroke: #e6e6e6; stroke-width: 2px; fill: #333333;" width="33" x="132" y="148.5"/>
			<rect height="16.5" rx="4" ry="4" style="stroke: #e6e6e6; stroke-width: 2px; fill: #333333;" width="33" x="132" y="132"/>
			<rect height="16.5" rx="4" ry="4" style="stroke: #e6e6e6; stroke-width: 2px; fill: #333333;" width="33" x="132" y="115.5"/>
			<rect height="16.5" rx="4" ry="4" style="stroke: #e6e6e6; stroke-width: 2px; fill: #333333;" width="33" x="132" y="99"/>
			<rect height="16.5" rx="4" ry="4" style="stroke: #e6e6e6; stroke-width: 2px; fill: #333333;" width="33" x="132" y="82.5"/>
			<rect height="16.5" rx="4" ry="4" style="stroke: #e6e6e6; stroke-width: 2px; fill: #333333;" width="33" x="132" y="66"/>
			<rect height="16.5" rx="4" ry="4" style="stroke: #e6e6e6; stroke-width: 2px; fill: #333333;" width="33" x="132" y="49.5"/>
			<rect height="16.5" rx="4" ry="4" style="stroke: #e6e6e6; stroke-width: 2px; fill: #333333;" width="33" x="132" y="33"/>
			<rect height="16.5" rx="4" ry="4" style="stroke: #e6e6e6; stroke-width: 2px; fill: #333333;" width="33" x="132" y="16.5"/>
			<rect height="16.5" rx="4" ry="4" style="stroke: #e6e6e6; stroke-width: 2px; fill: #333333;" width="33" x="132" y="0"/>
		</g>
		<g>
			<rect height="16.5" rx="4" ry="4" style="stroke: #e6e6e6; stroke-width: 2px; fill: #a8e8ff;" width="33" x="165" y="379.5"/>
			<rect height="16.5" rx="4" ry="4" style="stroke: #e6e6e6; stroke-width: 2px; fill: #a8e8ff;" width="33" x="165" y="363"/>
			<rect height="16.5" rx="4" ry="4" style="stroke: #e6e6e6; stroke-width: 2px; fill: #a8e8ff;" width="33" x="165" y="346.5"/>
			<rect height="16.5" rx="4" ry="4" style="stroke: #e6e6e6; stroke-width: 2px; fill: #a8e8ff;" width="33" x="165" y="330"/>
			<rect height="16.5" rx="4" ry="4" style="stroke: #e6e6e6; stroke-width: 2px; fill: #a8e8ff;" width="33" x="165" y="313.5"/>
			<rect height="16.5" rx="4" ry="4" style="stroke: #e6e6e6; stroke-width: 2px; fill: #333333;" width="33" x="165" y="297"/>
			<rect height="16.5" rx="4" ry="4" style="stroke: #e6e6e6; stroke-width: 2px; fill: #333333;" width="33" x="165" y="280.5"/>
			<rect height="16.5" rx="4" ry="4" style="stroke: #e6e6e6; stroke-width: 2px; fill: #333333;" width="33" x="165" y="264"/>
			<rect height="16.5" rx="4" ry="4" style="stroke: #e6e6e6; stroke-width: 2px; fill: #333333;" width="33" x="165" y="247.5"/>
			<rect height="16.5" rx="4" ry="4" style="stroke: #e6e6e6; stroke-width: 2px; fill: #333333;" width="33" x="165" y="231"/>
			<rect height="16.5" rx="4" ry="4" style="stroke: #e6e6e6; stroke-width: 2px; fill: #333333;" width="33" x="165" y="214.5"/>
			<rect height="16.5" rx="4" ry="4" style="stroke: #e6e6e6; stroke-width: 2px; fill: #333333;" width="33" x="165" y="198"/>
			<rect height="16.5" rx="4" ry="4" style="stroke: #e6e6e6; stroke-width: 2px; fill: #333333;" width="33" x="165" y="181.5"/>
			<rect height="16.5" rx="4" ry="4" style="stroke: #e6e6e6; stroke-width: 2px; fill: #333333;" width="33" x="165" y="165"/>
			<rect height="16.5" rx="4" ry="4" style="stroke: #e6e6e6; stroke-width: 2px; fill: #333333;" width="33" x="165" y="148.5"/>
			<rect height="16.5" rx="4" ry="4" style="stroke: #e6e6e6; stroke-width: 2px; fill: #333333;" width="33" x="165" y="132"/>
			<rect height="16.5" rx="4" ry="4" style="stroke: #e6e6e6; stroke-width: 2px; fill: #333333;" width="33" x="165" y="115.5"/>
			<rect height="16.5" rx="4" ry="4" style="stroke: #e6e6e6; stroke-width: 2px; fill: #333333;" width="33" x="165" y="99"/>
			<rect height="16.5" rx="4" ry="4" style="stroke: #e6e6e6; stroke-width: 2px; fill: #333333;" width="33" x="165" y="82.5"/>
			<rect height="16.5" rx="4" ry="4" style="stroke: #e6e6e6; stroke-width: 2px; fill: #333333;" width="33" x="165" y="66"/>
			<rect height="16.5" rx="4" ry="4" style="stroke: #e6e6e6; stroke-width: 2px; fill: #333333;" width="33" x="165" y="49.5"/>
			<rect height="16.5" rx="4" ry="4" style="stroke: #e6e6e6; stroke-width: 2px; fill: #333333;" width="33" x="165" y="33"/>
			<rect height="16.5" rx="4" ry="4" style="stroke: #e6e6e6; stroke-width: 2px; fill: #333333;" width="33" x="165" y="16.5"/>
			<rect height="16.5" rx="4" ry="4" style="stroke: #e6e6e6; stroke-width: 2px; fill: #333333;" width="33" x="165" y="0"/>
		</g>
		<g>
			<rect height="16.5" rx="4" ry="4" style="stroke: #e6e6e6; stroke-width: 2px; fill: #ff7d29;" width="33" x="198" y="379.5"/>
			<rect height="16.5" rx="4" ry="4" style="stroke: #e6e6e6; stroke-width: 2px; fill: #ff7d29;" width="33" x="198" y="363"/>
			<rect height="16.5" rx="4" ry="4" style="stroke: #e6e6e6; stroke-width: 2px; fill: #ff7d29;" width="33" x="198" y="346.5"/>
			<rect height="16.5" rx="4" ry="4" style="stroke: #e6e6e6; stroke-width: 2px; fill: #ff7d29;" width="33" x="198" y="330"/>
			<rect height="16.5" rx="4" ry="4" style="stroke: #e6e6e6; stroke-width: 2px; fill: #333333;" width="33" x="198" y="313.5"/>
			<rect height="16.5" rx="4" ry="4" style="stroke: #e6e6e6; stroke-width: 2px; fill: #333333;" width="33" x="198" y="297"/>
			<rect height="16.5" rx="4" ry="4" style="stroke: #e6e6e6; stroke-width: 2px; fill: #333333;" width="33" x="198" y="280.5"/>
			<rect height="16.5" rx="4" ry="4" style="stroke: #e6e6e6; stroke-width: 2px; fill: #333333;" width="33" x="198" y="264"/>
			<rect height="16.5" rx="4" ry="4" style="stroke: #e6e6e6; stroke-width: 2px; fill: #333333;" width="33" x="198" y="247.5"/>
			<rect height="16.5" rx="4" ry="4" style="stroke: #e6e6e6; stroke-width: 2px; fill: #333333;" width="33" x="198" y="231"/>
			<rect height="16.5" rx="4" ry="4" style="stroke: #e6e6e6; stroke-width: 2px; fill: #333333;" width="33" x="198" y="214.5"/>
			<rect height="16.5" rx="4" ry="4" style="stroke: #e6e6e6; stroke-width: 2px; fill: #333333;" width="33" x="198" y="198"/>
			<rect height="16.5" rx="4" ry="4" style="stroke: #e6e6e6; stroke-width: 2px; fill: #333333;" width="33" x="198" y="181.5"/>
			<rect height="16.5" rx="4" ry="4" style="stroke: #e6e6e6; stroke-width: 2px; fill: #333333;" width="33" x="198" y="165"/>
			<rect height="16.5" rx="4" ry="4" style="stroke: #e6e6e6; stroke-width: 2px; fill: #333333;" width="33" x="198" y="148.5"/>
			<rect height="16.5" rx="4" ry="4" style="stroke: #e6e6e6; stroke-width: 2px; fill: #333333;" width="33" x="198" y="132"/>
			<rect height="16.5" rx="4" ry="4" style="stroke: #e6e6e6; stroke-width: 2px; fill: #333333;" width="33" x="198" y="115.5"/>
			<rect height="16.5" rx="4" ry="4" style="stroke: #e6e6e6; stroke-width: 2px; fill: #333333;" width="33" x="198" y="99"/>
			<rect height="16.5" rx="4" ry="4" style="stroke: #e6e6e6; stroke-width: 2px; fill: #333333;" width="33" x="198" y="82.5"/>
			<rect height="16.5" rx="4" ry="4" style="stroke: #e6e6e6; stroke-width: 2px; fill: #333333;" width="33" x="198" y="66"/>
			<rect height="16.5" rx="4" ry="4" style="stroke: #e6e6e6; stroke-width: 2px; fill: #333333;" width="33" x="198" y="49.5"/>
			<rect height="16.5" rx="4" ry="4" style="stroke: #e6e6e6; stroke-width: 2px; fill: #333333;" width="33" x="198" y="33"/>
			<rect height="16.5" rx="4" ry="4" style="stroke: #e6e6e6; stroke-width: 2px; fill: #333333;" width="33" x="198" y="16.5"/>
			<rect height="16.5" rx="4" ry="4" style="stroke: #e6e6e6; stroke-width: 2px; fill: #333333;" width="33" x="198" y="0"/>
		</g>
	</g>
</svg>